<svg width="512" height="512" viewBox="0 0 512 512" xmlns="http://www.w3.org/2000/svg">
  <defs>
    <!-- Circular gradient for the icon shape -->
    <radialGradient id="circle-gradient" cx="50%" cy="30%" r="70%">
      <stop offset="0%" style="stop-color:#667eea;stop-opacity:1" />
      <stop offset="100%" style="stop-color:#764ba2;stop-opacity:1" />
    </radialGradient>
    
    <!-- Clipboard gradient -->
    <linearGradient id="clipboard-gradient" x1="0%" y1="0%" x2="100%" y2="100%">
      <stop offset="0%" style="stop-color:#ffffff;stop-opacity:0.95" />
      <stop offset="100%" style="stop-color:#f8fafc;stop-opacity:0.9" />
    </linearGradient>
    
    <!-- Drop shadow filter -->
    <filter id="drop-shadow" x="-50%" y="-50%" width="200%" height="200%">
      <feDropShadow dx="0" dy="8" stdDeviation="12" flood-color="rgba(0,0,0,0.3)"/>
    </filter>
  </defs>
  
  <!-- Circular app icon background -->
  <circle cx="256" cy="256" r="220" fill="url(#circle-gradient)" filter="url(#drop-shadow)"/>
  
  <!-- Main clipboard shape -->
  <g transform="translate(256, 256)">
    <!-- Clipboard base -->
    <rect x="-70" y="-55" width="140" height="170" rx="16" ry="16" 
          fill="url(#clipboard-gradient)" stroke="rgba(255,255,255,0.4)" stroke-width="3"/>
    
    <!-- Clipboard clip -->
    <rect x="-25" y="-75" width="50" height="20" rx="8" ry="8" 
          fill="#ffffff" stroke="rgba(102,126,234,0.3)" stroke-width="2"/>
    
    <!-- Content lines -->
    <rect x="-50" y="-25" width="80" height="4" rx="2" fill="rgba(102,126,234,0.7)"/>
    <rect x="-50" y="-10" width="65" height="4" rx="2" fill="rgba(102,126,234,0.6)"/>
    <rect x="-50" y="5" width="75" height="4" rx="2" fill="rgba(102,126,234,0.5)"/>
    <rect x="-50" y="20" width="60" height="4" rx="2" fill="rgba(102,126,234,0.5)"/>
    <rect x="-50" y="35" width="70" height="4" rx="2" fill="rgba(102,126,234,0.4)"/>
    
    <!-- Copy indicator (layered clipboard effect) -->
    <rect x="35" y="-40" width="22" height="22" rx="4" fill="rgba(255,255,255,0.9)" stroke="rgba(102,126,234,0.4)" stroke-width="2"/>
    <rect x="40" y="-35" width="22" height="22" rx="4" fill="rgba(255,255,255,0.95)" stroke="rgba(102,126,234,0.5)" stroke-width="2"/>
    
    <!-- Success indicator -->
    <circle cx="0" cy="65" r="12" fill="#10b981"/>
    <path d="M-4 65 L-1 68 L5 62" stroke="#ffffff" stroke-width="3" stroke-linecap="round" stroke-linejoin="round" fill="none"/>
  </g>
</svg>